HIERARCHY
ROOT Hips
{
    OFFSET 0.0 0.0 0.0
    CHANNELS 6 Xposition Yposition Zposition Zrotation Xrotation Yrotation
    JOINT Spine
    {
        OFFSET 0.0 5.0 0.0
        CHANNELS 3 Zrotation Xrotation Yrotation
        JOINT Chest
        {
            OFFSET 0.0 5.0 0.0
            CHANNELS 3 Zrotation Xrotation Yrotation
            JOINT Neck
            {
                OFFSET 0.0 5.0 0.0
                CHANNELS 3 Zrotation Xrotation Yrotation
                JOINT Head
                {
                    OFFSET 0.0 3.0 0.0
                    CHANNELS 3 Zrotation Xrotation Yrotation
                    End Site
                    {
                        OFFSET 0.0 3.0 0.0
                    }
                }
            }
            JOINT LeftShoulder
            {
                OFFSET -3.0 4.0 0.0
                CHANNELS 3 Zrotation Xrotation Yrotation
                JOINT LeftUpperArm
                {
                    OFFSET -5.0 0.0 0.0
                    CHANNELS 3 Zrotation Xrotation Yrotation
                    JOINT LeftLowerArm
                    {
                        OFFSET -5.0 0.0 0.0
                        CHANNELS 3 Zrotation Xrotation Yrotation
                        JOINT LeftHand
                        {
                            OFFSET -3.0 0.0 0.0
                            CHANNELS 3 Zrotation Xrotation Yrotation
                            End Site
                            {
                                OFFSET -2.0 0.0 0.0
                            }
                        }
                    }
                }
            }
            JOINT RightShoulder
            {
                OFFSET 3.0 4.0 0.0
                CHANNELS 3 Zrotation Xrotation Yrotation
                JOINT RightUpperArm
                {
                    OFFSET 5.0 0.0 0.0
                    CHANNELS 3 Zrotation Xrotation Yrotation
                    JOINT RightLowerArm
                    {
                        OFFSET 5.0 0.0 0.0
                        CHANNELS 3 Zrotation Xrotation Yrotation
                        JOINT RightHand
                        {
                            OFFSET 3.0 0.0 0.0
                            CHANNELS 3 Zrotation Xrotation Yrotation
                            End Site
                            {
                                OFFSET 2.0 0.0 0.0
                            }
                        }
                    }
                }
            }
        }
    }
    JOINT LeftUpLeg
    {
        OFFSET -3.0 0.0 0.0
        CHANNELS 3 Zrotation Xrotation Yrotation
        JOINT LeftLeg
        {
            OFFSET 0.0 -8.0 0.0
            CHANNELS 3 Zrotation Xrotation Yrotation
            JOINT LeftFoot
            {
                OFFSET 0.0 -8.0 0.0
                CHANNELS 3 Zrotation Xrotation Yrotation
                End Site
                {
                    OFFSET 0.0 -2.0 2.0
                }
            }
        }
    }
    JOINT RightUpLeg
    {
        OFFSET 3.0 0.0 0.0
        CHANNELS 3 Zrotation Xrotation Yrotation
        JOINT RightLeg
        {
            OFFSET 0.0 -8.0 0.0
            CHANNELS 3 Zrotation Xrotation Yrotation
            JOINT RightFoot
            {
                OFFSET 0.0 -8.0 0.0
                CHANNELS 3 Zrotation Xrotation Yrotation
                End Site
                {
                    OFFSET 0.0 -2.0 2.0
                }
            }
        }
    }
}

MOTION
Frames: 10
Frame Time: 0.03333333333333333
43.090932 92.783728 0.022859 -178.915568 -1.892841 -60.197114 -178.915568 -1.892841 -60.197114 -175.966842 -11.813388 -71.370469 0.000000 0.000000 0.000000 0.000000 -148.196859 -178.253643 0.000000 0.000000 0.000000 83.775919 69.041875 15.893398 92.254814 112.541482 -174.580936 0.000000 0.000000 0.000000 0.000000 0.000000 0.000000 99.578332 69.089552 -23.829447 93.134735 123.486197 -175.267511 0.000000 0.000000 0.000000 93.724404 78.170657 -17.265043 92.067758 29.440078 -1.167373 0.000000 0.000000 0.000000 92.951606 68.233699 -7.357977 91.814489 34.781815 -1.260467 0.000000 0.000000 0.000000
43.082596 94.208089 0.026312 -178.286384 -14.732077 -83.508921 -178.286384 -14.732077 -83.508921 -175.529321 -131.054140 -93.895632 0.000000 0.000000 0.000000 0.000000 -146.130409 -178.117530 0.000000 0.000000 0.000000 83.938823 67.698620 14.514377 92.230842 116.676111 -175.566478 0.000000 0.000000 0.000000 0.000000 0.000000 0.000000 101.173099 72.590604 -32.207522 95.580825 117.714014 -169.463101 0.000000 0.000000 0.000000 92.424849 82.931480 -18.855591 91.166574 34.649388 -0.806309 0.000000 0.000000 0.000000 90.493338 75.327139 -1.883494 89.903246 42.144880 0.087561 0.000000 0.000000 0.000000
42.951697 95.401764 0.023847 179.810491 167.075708 -90.825776 179.810491 167.075708 -90.825776 -173.858835 -142.353797 -97.940573 0.000000 0.000000 0.000000 0.000000 -148.633543 -178.246739 0.000000 0.000000 0.000000 84.091763 68.530018 14.741361 91.648883 124.973210 -177.643485 0.000000 0.000000 0.000000 0.000000 0.000000 0.000000 101.584855 72.260548 -32.652182 95.653841 120.532244 -170.471610 0.000000 0.000000 0.000000 92.044036 80.942878 -12.620093 91.196951 35.268600 -0.846566 0.000000 0.000000 0.000000 90.190362 74.964572 -0.708652 90.073304 41.521699 -0.064903 0.000000 0.000000 0.000000
42.777011 96.449575 0.024251 178.225948 23.621134 -85.948901 178.225948 23.621134 -85.948901 -173.022078 -121.403300 -94.273140 0.000000 0.000000 0.000000 0.000000 -149.368467 -178.698116 0.000000 0.000000 0.000000 83.908345 75.529491 22.467090 90.718844 136.731854 -179.323346 0.000000 0.000000 0.000000 0.000000 0.000000 0.000000 101.279018 75.849102 -38.344874 94.655270 129.727843 -174.403746 0.000000 0.000000 0.000000 91.097594 81.687429 -7.470487 90.424251 33.241066 -0.278060 0.000000 0.000000 0.000000 89.675507 73.805281 1.117166 89.104132 40.349088 0.761089 0.000000 0.000000 0.000000
42.264147 96.516135 0.024866 178.392681 13.761921 -83.464121 178.392681 13.761921 -83.464121 -174.327392 -117.909595 -93.011787 0.000000 0.000000 0.000000 0.000000 -149.889577 -178.831421 0.000000 0.000000 0.000000 82.833492 76.119302 26.967390 90.350816 139.215278 -179.697346 0.000000 0.000000 0.000000 0.000000 0.000000 0.000000 100.685484 85.233998 -66.161172 92.050743 133.116054 -177.809891 0.000000 0.000000 0.000000 90.378816 85.739051 -5.071229 90.319720 33.306937 -0.210074 0.000000 0.000000 0.000000 88.748862 72.864186 4.051739 89.162794 36.201582 0.612798 0.000000 0.000000 0.000000
41.758445 96.460655 0.027245 176.556076 21.703712 -81.402120 176.556076 21.703712 -81.402120 -176.579233 -27.130639 -83.346172 0.000000 0.000000 0.000000 0.000000 -151.107019 -178.511073 0.000000 0.000000 0.000000 80.849201 67.026023 20.805227 88.835714 128.922530 178.558351 0.000000 0.000000 0.000000 0.000000 0.000000 0.000000 101.275055 83.470016 -60.137886 94.362295 136.856922 -175.910720 0.000000 0.000000 0.000000 89.429859 86.890632 10.380824 90.173531 32.610439 -0.111022 0.000000 0.000000 0.000000 87.758811 73.479620 7.516689 88.861175 37.179333 0.863816 0.000000 0.000000 0.000000
41.024716 96.551502 0.061000 175.492758 6.336196 -54.628637 175.492758 6.336196 -54.628637 -179.492403 -0.774221 -56.751139 0.000000 0.000000 0.000000 0.000000 -153.664459 -178.998125 0.000000 0.000000 0.000000 67.198559 135.523129 157.569971 23.414519 175.857597 170.505298 0.000000 0.000000 0.000000 0.000000 0.000000 0.000000 113.760669 90.789838 -91.793665 155.758447 171.929477 -162.520791 0.000000 0.000000 0.000000 89.753273 93.615833 176.101612 89.461124 38.206637 0.424160 0.000000 0.000000 0.000000 88.749304 77.612842 5.676831 88.695676 42.315307 1.187516 0.000000 0.000000 0.000000
40.516035 96.504697 0.058780 173.973406 7.973902 -52.995196 173.973406 7.973902 -52.995196 179.486229 0.825577 -58.106332 0.000000 0.000000 0.000000 0.000000 -154.686814 -179.020255 0.000000 0.000000 0.000000 45.354938 161.035524 161.252639 -49.216874 -169.715575 171.103669 0.000000 0.000000 0.000000 0.000000 0.000000 0.000000 142.593034 142.313635 -134.710873 -137.628549 -166.852685 -165.637618 0.000000 0.000000 0.000000 88.778729 93.230360 159.307609 90.019119 33.937449 -0.012866 0.000000 0.000000 0.000000 90.917618 77.278379 -4.058186 89.451790 47.303624 0.594161 0.000000 0.000000 0.000000
40.204448 96.320486 0.053717 173.957142 8.361248 -54.236420 173.957142 8.361248 -54.236420 -179.909038 -0.207229 -66.301206 0.000000 0.000000 0.000000 0.000000 -154.782341 -179.758249 0.000000 0.000000 0.000000 12.309596 172.540760 149.035778 -74.303145 -151.587346 171.355431 0.000000 0.000000 0.000000 0.000000 0.000000 0.000000 176.600652 175.831228 -129.178265 -109.581446 -148.127695 -167.528264 0.000000 0.000000 0.000000 89.445552 82.130399 4.004913 89.555221 40.075855 0.374220 0.000000 0.000000 0.000000 91.770330 78.710972 -8.801410 88.860006 52.870760 1.505596 0.000000 0.000000 0.000000
40.083079 96.163851 0.057150 173.997277 8.902303 -56.126068 173.997277 8.902303 -56.126068 179.659226 0.575028 -59.348649 0.000000 0.000000 0.000000 0.000000 -154.714108 -179.284087 0.000000 0.000000 0.000000 -9.289878 -173.637468 145.718498 -78.893787 -143.177068 171.638684 0.000000 0.000000 0.000000 0.000000 0.000000 0.000000 -164.871871 -149.813124 -114.926568 -99.122716 -128.499365 -168.586410 0.000000 0.000000 0.000000 89.832155 81.882684 1.176626 89.335138 47.834023 0.734109 0.000000 0.000000 0.000000 90.997774 75.954247 -3.982263 88.532041 52.973052 1.945820 0.000000 0.000000 0.000000
